<svg xmlns="http://www.w3.org/2000/svg" viewBox="0 0 412.58 410.97"><defs><style>.cls-1{fill:#fff;}</style></defs><title>Asset 26</title><g id="Layer_2" data-name="Layer 2"><g id="Layer_1-2" data-name="Layer 1"><path class="cls-1" d="M396.09,92,381.63,102q-50.24,34.9-100.49,69.79c-16,11.11-32.13,22.12-48.2,33.18a3.25,3.25,0,0,0-.55,5.17c9.89,10,19.83,19.88,29.65,29.91,4.24,4.33,8.2,8.92,12.32,13.37.87.94,1.89,1.74,2.8,2.66l78.14,78.62c8.3,8.35,8.26,19.27-.11,27.58q-16.61,16.5-33.22,33a14.57,14.57,0,0,0-1.18,1.61c-1.9-2.69-3.55-5-5.18-7.33l-61.22-87.71c-7-10-14.07-20-21-30-9.58-13.92-19.06-27.91-28.58-41.86-1.16-1.69-1.44-1.72-2.8-.36-13.23,13.21-26.51,26.38-39.67,39.66-9.35,9.43-18.44,19.11-27.83,28.5Q105.24,327,75.8,356.06A18.14,18.14,0,0,1,49.69,356Q32.5,338.76,15.37,321.46c-.27-.28-.53-.57-.82-.9l167.68-117c-.56-.62-.9-1-1.27-1.42q-17.45-17.57-34.9-35.14-44.89-45.14-89.79-90.27c-6.83-6.87-7.64-16.8-2-24.19a17,17,0,0,1,1.56-1.76Q73.18,33.55,90.58,16.28c.31-.31.65-.58,1.11-1,2,2.88,4,5.66,5.93,8.46q37.53,54,75.07,107.91,16.58,23.82,33.26,47.57a2.66,2.66,0,0,0,4.36.35l27.13-26.71c9.57-9.42,19.18-18.8,28.71-28.26q34-33.77,67.94-67.61c4.11-4.1,8.84-6.43,14.73-6.14a16.37,16.37,0,0,1,11.12,4.58c12,11.91,23.87,23.94,35.79,35.92A4.35,4.35,0,0,1,396.09,92ZM230.56,199.5,387,90.71a2.64,2.64,0,0,0-.25-.49C376.59,80,366.49,69.68,356.23,59.54a12,12,0,0,0-16.14-.81c-2.81,2.38-5.19,5.26-8,8.15l9.38,9.37-2,2.15L330.23,69,317.16,81.76l9.3,9.27-1.95,2.25-9.36-9.52L302.3,96.51l9.34,9.28-2.23,2.42-9.32-9.48-12.88,12.75,9.38,9.34L294.34,123l-9.19-9.32-69.08,68.61C223.5,185.58,228.37,191.32,230.56,199.5Zm-132.24,107,4.22-4.44,9.27,9.43,10.92-10.92-9.67-9.63a32.41,32.41,0,0,0,2.65-2.49c1-1.15,1.69-1.22,2.79,0,2.68,2.86,5.5,5.59,8.07,8.19l69.86-69.39a25.12,25.12,0,0,1-8.82-6.86,26.81,26.81,0,0,1-5-10.23L23.26,320.86c10.44,10.53,20.64,21,31,31.22a12,12,0,0,0,15.49,1.06c2.91-2.23,5.39-5,8.39-7.87l-9.89-9.8A29,29,0,0,0,70.81,333c1-1.28,1.76-1,2.8.05,2.68,2.85,5.48,5.59,8.11,8.26l11-10.91L83.4,321l4.12-4.4,9.41,9.69L107.6,315.7ZM299.14,286.7l-70.5-71c-5.4,8.33-6.87,9.46-17.72,13.44L321,387.43c10.55-10.44,21-20.68,31.34-31.09,3.09-3.12,3.71-7.18,2.77-11.45s-4.18-6.6-7.11-9.6l-10,10-4.32-4,10.14-9.92L333,320.58l-9.87,9.86-4.31-4.06,10-9.83-10.91-11a10.88,10.88,0,0,1-1,1.35c-2.61,2.63-5.23,5.25-7.9,7.82-.33.31-1.2.55-1.47.35-1.29-1-2.45-2.07-3.91-3.36L314,301.46l-10.89-11-9.84,9.85-4.09-3.77ZM183.73,196.11a24.94,24.94,0,0,1,16.6-14.93L90.87,23.75a2.9,2.9,0,0,0-.49.26C80.1,34.22,69.79,44.39,59.58,54.66a11.71,11.71,0,0,0-3.17,10.7c.73,4.48,4,7.08,7.12,10.14l9.22-9.27,4.43,4.13-9.34,9,10.78,11,9.19-9.17L92,85.33l-9.34,9,11,11,9.23-9.32,3.93,3.93-9.34,9.19,10.77,11c.32-.3.74-.66,1.13-1,2.47-2.45,4.93-4.92,7.44-7.33.31-.3,1.14-.57,1.34-.4,1.25,1.08,2.38,2.29,3.68,3.58l-9.47,9.25Zm22.76,27.5a18.76,18.76,0,1,0-18.68-18.8A18.77,18.77,0,0,0,206.49,223.61Z"/><path class="cls-1" d="M412.58,108.72l-3.41,3.57-12.52-12.6,3.45-3.5Z"/><path class="cls-1" d="M16,311.21l-3.44,3.62L0,302.32l3.62-3.65Z"/><path class="cls-1" d="M99.23,15.88,95.6,12.3a8.31,8.31,0,0,1,.7-.94C99.88,7.79,103.5,4.26,107,.66c.91-.93,1.48-.84,2.3.06a36,36,0,0,0,2.72,2.46Z"/><path class="cls-1" d="M296.54,407.51l12.13-13.14,4.19,3.86-5.1,5.52c-2,2.14-4,4.25-5.89,6.44-.88,1-1.54,1-2.43.05S297.58,408.49,296.54,407.51Z"/><path class="cls-1" d="M206.54,214.3a9.43,9.43,0,1,1,9.51-9.39A9.59,9.59,0,0,1,206.54,214.3Zm6.4-9.39a6.34,6.34,0,1,0-12.67-.08,6.34,6.34,0,1,0,12.67.08Z"/><path class="cls-1" d="M75.41,349.12"/><path class="cls-1" d="M164.09,395"/></g></g></svg>