<svg xmlns="http://www.w3.org/2000/svg" viewBox="0 0 438.03 439.78"><defs><style>.cls-1{fill:#fff;}</style></defs><title>Asset 27</title><g id="Layer_2" data-name="Layer 2"><g id="Layer_1-2" data-name="Layer 1"><path class="cls-1" d="M140.25,13.36c2.51,5.41,5,10.69,7.42,16q25.71,55.51,51.41,111c8.18,17.71,16.25,35.46,24.37,53.19a3.25,3.25,0,0,0,5,1.44c11.52-8,23-16.11,34.58-24,5-3.43,10.2-6.54,15.3-9.83,1.08-.7,2-1.56,3.1-2.3l90.92-63.41c9.66-6.73,20.41-4.81,27.15,4.86q13.39,19.21,26.78,38.42a14.57,14.57,0,0,0,1.38,1.44c-3,1.41-5.54,2.64-8.11,3.84l-96.95,45.17c-11.08,5.16-22.11,10.41-33.22,15.5-15.36,7-30.78,14-46.17,20.94-1.87.85-1.94,1.13-.84,2.7,10.73,15.31,21.42,30.66,32.23,45.92,7.68,10.84,15.65,21.46,23.28,32.33q23.76,33.85,47.29,67.86a18.14,18.14,0,0,1-4.56,25.71q-19.94,14-39.93,27.85c-.32.22-.66.42-1,.66L213.34,243.26c-.71.44-1.18.7-1.62,1q-20.32,14.16-40.63,28.32Q118.89,309,66.69,345.47c-7.94,5.54-17.87,4.62-24.17-2.17A17,17,0,0,1,41,341.46q-14-20.1-28-40.22c-.25-.36-.45-.74-.78-1.26,3.18-1.49,6.27-2.95,9.36-4.38q59.62-27.67,119.24-55.33,26.32-12.23,52.6-24.56a2.66,2.66,0,0,0,1.1-4.23l-21.63-31.33C165.27,169.1,157.68,158,150,147q-27.4-39.32-54.88-78.58c-3.33-4.76-4.8-9.82-3.51-15.57A16.37,16.37,0,0,1,98,42.68c13.8-9.76,27.69-19.38,41.56-29.06A4.35,4.35,0,0,1,140.25,13.36Zm77.38,181.59L137.45,22.08a2.64,2.64,0,0,0-.52.16C125.08,30.49,113.19,38.67,101.43,47a12,12,0,0,0-3.58,15.76c1.86,3.18,4.29,6,6.65,9.27l10.85-7.63,1.77,2.39-10.86,7.45,10.33,15.08,10.73-7.57,1.88,2.3-11,7.58,10.34,14.86,10.75-7.6,2,2.62-10.94,7.55L140.7,124l10.81-7.63,1.74,2.59-10.76,7.44,55.67,79.87C202.7,199.5,209.19,195.69,217.63,194.95Zm82.55,148.71-3.64-4.93,10.89-7.5-8.87-12.64-11.16,7.87a32.41,32.41,0,0,0-2-3c-1-1.17-.91-1.87.44-2.75,3.28-2.14,6.46-4.45,9.46-6.54L239,233.35a25.12,25.12,0,0,1-8.28,7.5A26.81,26.81,0,0,1,219.77,244l81.65,176c12.17-8.47,24.21-16.72,36.1-25.18a12,12,0,0,0,3.72-15.08c-1.69-3.25-4-6.18-6.31-9.62l-11.36,8.05a29,29,0,0,0-2-2.92c-1.08-1.24-.73-1.92.53-2.75,3.27-2.15,6.45-4.43,9.53-6.56l-8.85-12.7L312,360.86,308.36,356l11.16-7.6-8.64-12.34Zm15.17-201.23-82.07,57.2c7.27,6.76,8.13,8.4,10.19,19.78L418.33,138.3c-8.47-12.2-16.75-24.28-25.22-36.24-2.54-3.59-6.43-4.89-10.8-4.7s-7.22,3-10.68,5.35l8.17,11.59-4.67,3.57-8-11.7-12.54,8.73,8,11.42-4.74,3.54-8-11.51-12.76,8.84a10.88,10.88,0,0,1,1.16,1.23c2.14,3,4.27,6.06,6.34,9.13.25.38.34,1.28.09,1.51-1.16,1.1-2.46,2.06-4,3.28l-8.28-12-12.67,8.83,8,11.39L323.36,154ZM206.21,240.49a24.94,24.94,0,0,1-11.85-18.93L20.42,302.24a2.9,2.9,0,0,0,.18.53c8.28,11.88,16.53,23.79,24.88,35.62a11.71,11.71,0,0,0,10,5c4.54.05,7.66-2.72,11.21-5.26l-7.54-10.68L64,323.76l7.26,10.75L84,325.8l-7.45-10.64,4.75-3.4,7.3,10.76,12.74-8.91-7.59-10.69,4.55-3.19,7.45,10.79,12.66-8.71c-.24-.37-.52-.84-.84-1.29-2-2.86-4-5.7-5.94-8.59-.24-.36-.37-1.22-.17-1.39,1.28-1,2.67-2,4.16-3l7.47,10.92Zm31-17.68A18.76,18.76,0,1,0,215.48,238,18.77,18.77,0,0,0,237.22,222.82Z"/><path class="cls-1" d="M159.6,0l2.93,4L148,14.14l-2.85-4Z"/><path class="cls-1" d="M290.66,425.6l3,4-14.48,10.18-3-4.19Z"/><path class="cls-1" d="M14.11,292.64l-4.16,3a8.31,8.31,0,0,1-.8-.85c-2.9-4.14-5.75-8.3-8.69-12.41-.75-1.05-.57-1.6.45-2.26a36,36,0,0,0,2.9-2.26Z"/><path class="cls-1" d="M433.9,165.83,423,151.62l4.52-3.47,4.56,6c1.77,2.31,3.5,4.65,5.33,6.91.85,1,.75,1.69-.37,2.41S435,165,433.9,165.83Z"/><path class="cls-1" d="M228.06,221.16a9.43,9.43,0,1,1-7.61-11A9.59,9.59,0,0,1,228.06,221.16Zm-8.14-7.92a6.34,6.34,0,1,0-2.26,12.47,6.34,6.34,0,1,0,2.26-12.47Z"/><path class="cls-1" d="M338.26,373.57"/><path class="cls-1" d="M398.71,294.12"/></g></g></svg>