<svg xmlns="http://www.w3.org/2000/svg" viewBox="0 0 374.22 375.6"><defs><style>.cls-1{fill:#fff;}</style></defs><title>Asset 28</title><g id="Layer_2" data-name="Layer 2"><g id="Layer_1-2" data-name="Layer 1"><path class="cls-1" d="M43.92,19,56.21,31.63q42.61,43.9,85.2,87.8,20.36,21,40.58,42.16a3.25,3.25,0,0,0,5.19-.29c8.22-11.38,16.39-22.8,24.69-34.12,3.58-4.88,7.47-9.54,11.19-14.33.79-1,1.41-2.15,2.17-3.19l64.87-89.89c6.89-9.55,17.67-11.28,27.23-4.38q19,13.71,38,27.41a14.57,14.57,0,0,0,1.78.91C354.72,46,352.71,48,350.68,50l-76.58,74.67c-8.75,8.53-17.43,17.13-26.23,25.61-12.17,11.72-24.44,23.34-36.66,35-1.48,1.42-1.46,1.7.1,2.83,15.19,10.9,30.34,21.86,45.59,32.69,10.83,7.69,21.86,15.09,32.65,22.83q33.61,24.1,67.05,48.43a18.14,18.14,0,0,1,4.19,25.77q-14.21,19.77-28.49,39.48c-.23.32-.48.61-.76,1L188.86,211.85c-.52.65-.88,1.05-1.2,1.49q-14.5,20.07-29,40.15-37.23,51.64-74.46,103.27c-5.66,7.85-15.33,10.27-23.53,5.94a17,17,0,0,1-2-1.25l-39.74-28.7c-.35-.25-.67-.55-1.15-.94,2.51-2.46,4.94-4.85,7.38-7.23Q72.3,278.78,119.43,233q20.8-20.24,41.53-40.55a2.66,2.66,0,0,0-.36-4.36l-30.77-22.42c-10.85-7.91-21.67-15.86-32.56-23.73q-38.85-28.06-77.76-56c-4.71-3.39-7.78-7.68-8.46-13.53a16.37,16.37,0,0,1,2.71-11.71c9.8-13.77,19.74-27.44,29.62-41.15A4.35,4.35,0,0,1,43.92,19Zm133,145.84L44.16,28.16a2.64,2.64,0,0,0-.44.33c-8.45,11.7-17,23.34-25.31,35.12a12,12,0,0,0,1.83,16.06c2.8,2.38,6,4.26,9.34,6.55L37.3,75.43l2.46,1.67L32,87.72,46.69,98.54l7.63-10.69,2.53,1.55L49,100.18l14.67,10.61,7.64-10.72,2.76,1.81-7.83,10.74,14.67,10.63,7.69-10.77,2.5,1.87-7.7,10.58,78.94,57C164.36,174.06,169.23,168.32,176.95,164.83ZM304,277.92l-5.07-3.45,7.8-10.68-12.55-9-7.93,11.11a32.41,32.41,0,0,0-2.89-2.21c-1.3-.78-1.47-1.47-.49-2.74,2.39-3.11,4.63-6.33,6.77-9.29L209.79,194a25.12,25.12,0,0,1-5.33,9.82,26.81,26.81,0,0,1-9.28,6.61L330.41,349.63c8.69-12,17.33-23.78,25.76-35.69a12,12,0,0,0-1.47-15.46c-2.67-2.51-5.83-4.5-9.13-7l-8.06,11.35a29,29,0,0,0-2.86-2.1c-1.43-.81-1.32-1.57-.41-2.77,2.38-3.11,4.63-6.31,6.83-9.34l-12.55-9.07-7.71,10.7-5-3.35,8-10.86-12.23-8.79ZM251.83,83l-58.56,81.1c9.1,4,10.45,5.24,16.15,15.3L347.67,45.06c-12-8.71-23.83-17.39-35.77-25.87-3.58-2.55-7.68-2.49-11.75-.87s-5.83,5.2-8.32,8.58l11.54,8.24-3.23,4.91-11.44-8.4-9,12.38,11.33,8.14-3.3,4.91-11.32-8.24-9.12,12.56a10.88,10.88,0,0,1,1.5.78c3,2.15,6,4.31,9,6.53.36.27.74,1.09.59,1.39-.73,1.42-1.65,2.76-2.68,4.41L264,66l-9,12.52,11.32,8.11-3.05,4.65ZM181.22,211.59a24.94,24.94,0,0,1-17.44-14L26.26,331.25a2.9,2.9,0,0,0,.34.44c11.74,8.48,23.46,17,35.25,25.4a11.71,11.71,0,0,0,11.07,1.39c4.3-1.45,6.33-5.1,8.85-8.67l-10.64-7.59,3.36-5,10.4,7.75L94,332.49l-10.54-7.58,3.36-4.78,10.45,7.74,9.08-12.62-10.69-7.59,3.24-4.52,10.59,7.72,9.07-12.41c-.34-.27-.77-.62-1.22-.94-2.82-2-5.65-4.06-8.44-6.14-.35-.26-.75-1-.61-1.25.86-1.41,1.87-2.73,2.94-4.22l10.66,7.84Zm23.43-26.93a18.76,18.76,0,1,0-15.51,21.49A18.77,18.77,0,0,0,204.65,184.66Z"/><path class="cls-1" d="M57.77,0l4.07,2.78L51.45,17.19l-4-2.84Z"/><path class="cls-1" d="M322.08,358.41l4.13,2.8L315.9,375.6l-4.19-3Z"/><path class="cls-1" d="M17.13,324.27l-2.95,4.16a8.31,8.31,0,0,1-1-.54C9,325,5,322,.84,319.06c-1.06-.75-1.07-1.32-.32-2.28a36,36,0,0,0,2-3.09Z"/><path class="cls-1" d="M371.45,65.9l-14.93-9.83,3.13-4.77,6.28,4.14c2.43,1.6,4.84,3.24,7.31,4.76,1.15.71,1.27,1.35.45,2.39S372.25,64.71,371.45,65.9Z"/><path class="cls-1" d="M195.46,186.12a9.43,9.43,0,1,1-10.82-7.86A9.59,9.59,0,0,1,195.46,186.12Zm-10.3-4.79a6.34,6.34,0,1,0,2,12.52,6.34,6.34,0,1,0-2-12.52Z"/></g></g></svg>