<svg xmlns="http://www.w3.org/2000/svg" viewBox="0 0 427.86 427.79"><defs><style>.cls-1{fill:#fff;}</style></defs><title>Asset 29</title><g id="Layer_2" data-name="Layer 2"><g id="Layer_1-2" data-name="Layer 1"><path class="cls-1" d="M6.85,133.39l16.81,5.27Q82,157,140.36,175.39c18.6,5.87,37.16,11.85,55.74,17.79a3.25,3.25,0,0,0,4.42-2.73c1.82-13.92,3.57-27.85,5.5-41.76.83-6,2-11.95,3-17.93.21-1.27.22-2.56.39-3.84Q216.6,72,223.76,17C225.29,5.34,233.94-1.31,245.63.22q23.22,3,46.44,6.06a14.57,14.57,0,0,0,2,0c-1,3.15-1.78,5.87-2.62,8.58q-15.93,51.05-31.86,102.1c-3.64,11.67-7.19,23.36-10.9,35-5.14,16.1-10.4,32.15-15.6,48.23-.63,2-.48,2.2,1.43,2.44,18.55,2.37,37.09,4.8,55.65,7.08,13.18,1.62,26.41,2.88,39.58,4.55,27.35,3.48,54.68,7.12,82,10.72a18.14,18.14,0,0,1,15.94,20.68q-3.1,24.14-6.29,48.28c-.05.39-.13.77-.21,1.2l-195.14-61c-.15.82-.28,1.35-.34,1.88q-3.21,24.56-6.41,49.11-8.2,63.13-16.4,126.26c-1.25,9.6-8.61,16.32-17.88,16.41a17,17,0,0,1-2.35-.16l-48.61-6.35c-.43-.06-.85-.16-1.46-.28,1-3.36,2-6.62,3.06-9.87Q155.35,348.43,175,285.72q8.68-27.7,17.25-55.42a2.66,2.66,0,0,0-2.39-3.66l-37.73-5.09c-13.31-1.8-26.61-3.65-39.92-5.39q-47.52-6.21-95.05-12.32c-5.76-.74-10.49-3.06-13.88-7.88A16.37,16.37,0,0,1,.12,184.35c2.08-16.77,4.31-33.53,6.49-50.29A4.35,4.35,0,0,1,6.85,133.39Zm186.37,65L11.41,141.34a2.64,2.64,0,0,0-.23.5c-1.87,14.31-3.83,28.61-5.57,42.93A12,12,0,0,0,14.86,198c3.6.76,7.34.88,11.33,1.32l1.66-13.16,3,.3-1.8,13L47.11,202l1.63-13,3,.16-1.79,13.23,18,2.36,1.62-13.07,3.28.28L71,205.15l18,2.38,1.64-13.13,3.09.46-1.74,13,96.54,12.6C186.53,212.54,188.09,205.17,193.22,198.43ZM358.75,237.5l-6.1-.62,1.78-13.1-15.32-2-1.69,13.55a32.41,32.41,0,0,0-3.59-.57c-1.51-.07-2-.59-1.74-2.18.63-3.87,1.06-7.77,1.53-11.39L236,208.49a25.12,25.12,0,0,1,0,11.17,26.81,26.81,0,0,1-5,10.22L416.09,288c1.93-14.7,3.93-29.16,5.69-43.65a12,12,0,0,0-8.64-12.9c-3.55-.94-7.27-1.19-11.36-1.81l-1.69,13.82a29,29,0,0,0-3.51-.48c-1.64,0-1.91-.75-1.67-2.24.61-3.87,1.07-7.76,1.57-11.46l-15.35-2-1.7,13.08-6-.57,1.9-13.37-14.94-1.92ZM220.17,90.82,207.22,190c9.89-.83,11.68-.36,21.48,5.78L286.45,11.88c-14.72-2-29.23-4-43.77-5.75-4.36-.53-7.95,1.46-10.75,4.83s-2.66,7.34-3.24,11.5l14.07,1.77-.5,5.86-14.05-1.95-2,15.15,13.84,1.77L239.49,51l-13.87-1.86-2.05,15.38a10.88,10.88,0,0,1,1.69,0c3.68.46,7.35.92,11,1.46.45.07,1.17.61,1.18.95,0,1.6-.14,3.21-.26,5.15l-14.42-1.94-2,15.32,13.81,1.75-.47,5.54Zm-1,146.72a24.94,24.94,0,0,1-22-4L139.79,416.49a2.9,2.9,0,0,0,.51.22c14.36,1.87,28.72,3.79,43.09,5.58a11.71,11.71,0,0,0,10.4-4c3.09-3.32,3.15-7.5,3.66-11.83l-13-1.62.55-6,12.84,1.87L200,385.36l-12.88-1.65.68-5.8,12.87,1.84,2-15.42-13-1.59.71-5.51,13,1.76,2.08-15.23c-.43-.07-1-.18-1.52-.25-3.45-.46-6.91-.88-10.35-1.39-.43-.06-1.15-.55-1.14-.81.09-1.65.35-3.29.58-5.11L206.1,338ZM227,202.7A18.76,18.76,0,1,0,223.59,229,18.77,18.77,0,0,0,227,202.7Z"/><path class="cls-1" d="M10,110.1l4.91.51-2.29,17.62-4.88-.59Z"/><path class="cls-1" d="M412.94,299.7l5,.5-2.22,17.56-5.1-.63Z"/><path class="cls-1" d="M128.45,414.69l-.61,5.07a8.31,8.31,0,0,1-1.17,0c-5-.64-10-1.34-15-1.93-1.29-.15-1.57-.65-1.37-1.86a36,36,0,0,0,.28-3.66Z"/><path class="cls-1" d="M317.28,18.91l-17.81-1.55.48-5.68,7.49.65c2.9.25,5.79.55,8.7.71,1.35.08,1.76.59,1.53,1.89S317.42,17.48,317.28,18.91Z"/><path class="cls-1" d="M219.62,208.36a9.43,9.43,0,1,1-13.25-1.77A9.59,9.59,0,0,1,219.62,208.36Zm-11.34.69a6.34,6.34,0,1,0,7.7,10.07,6.34,6.34,0,1,0-7.7-10.07Z"/></g></g></svg>