<svg xmlns="http://www.w3.org/2000/svg" viewBox="0 0 448.35 446.56"><defs><style>.cls-1{fill:#fff;}</style></defs><title>Asset 30</title><g id="Layer_2" data-name="Layer 2"><g id="Layer_1-2" data-name="Layer 1"><path class="cls-1" d="M11.66,284.07l16.55-6q57.49-20.91,115-41.8c18.34-6.65,36.71-13.18,55.07-19.77a3.25,3.25,0,0,0,1.86-4.85c-7-12.16-14.1-24.28-21-36.49-3-5.27-5.65-10.72-8.49-16.07-.6-1.13-1.38-2.17-2-3.28q-27.74-48-55.46-96c-5.89-10.19-3.06-20.74,7.15-26.64q20.28-11.71,40.55-23.42a14.57,14.57,0,0,0,1.55-1.25c1.15,3.09,2.16,5.74,3.14,8.41Q183.91,67.1,202.3,117.32c4.2,11.47,8.5,22.92,12.63,34.42,5.71,15.9,11.29,31.85,16.94,47.78.69,1.93,1,2,2.62,1.07,16.17-9.4,32.37-18.74,48.49-28.21,11.45-6.73,22.71-13.77,34.19-20.45q35.75-20.8,71.63-41.36A18.14,18.14,0,0,1,414,117.29q12.22,21.05,24.36,42.15c.19.34.36.69.57,1.08l-192,70.24c.38.74.6,1.24.87,1.7q12.38,21.45,24.77,42.89,31.87,55.11,63.75,110.21c4.85,8.38,3.09,18.19-4.22,23.9a17,17,0,0,1-2,1.31L287.7,435.29c-.38.22-.77.39-1.33.67-1.22-3.3-2.4-6.49-3.57-9.69q-22.5-61.75-45-123.51-9.95-27.26-20-54.49a2.66,2.66,0,0,0-4.12-1.45l-33,18.9c-11.66,6.66-23.34,13.28-35,20q-41.51,24-83,48c-5,2.91-10.19,4-15.81,2.18a16.37,16.37,0,0,1-9.58-7.27c-8.55-14.58-17-29.24-25.42-43.87A4.35,4.35,0,0,1,11.66,284.07Zm187.51-61.68L20.12,287.6a2.64,2.64,0,0,0,.12.53c7.21,12.5,14.35,25,21.68,37.47a12,12,0,0,0,15.4,4.91c3.32-1.58,6.36-3.76,9.8-5.84l-6.68-11.46L63,311.66l6.5,11.45,15.9-9-6.63-11.34,2.45-1.67,6.62,11.59,15.69-9-6.66-11.36,2.78-1.77L106.21,302l15.71-9-6.68-11.42,2.73-1.51,6.5,11.35,84.31-48.69C202.44,237.65,199.2,230.86,199.17,222.39Zm155.18-69.62L349.13,156l-6.55-11.49-13.35,7.76L336.12,164a32.41,32.41,0,0,0-3.2,1.73c-1.24.86-1.94.74-2.7-.67-1.85-3.45-3.88-6.81-5.71-10l-85.26,49.24a25.12,25.12,0,0,1,6.77,8.88,26.81,26.81,0,0,1,2.23,11.17L430.59,158c-7.4-12.84-14.6-25.54-22-38.11a12,12,0,0,0-14.71-5c-3.39,1.41-6.5,3.48-10.12,5.47l7.06,12a29,29,0,0,0-3.08,1.75c-1.33,1-2,.56-2.69-.76-1.86-3.44-3.87-6.81-5.73-10.05L365.89,131l6.61,11.42-5.11,3.2-6.62-11.77-13,7.56Zm-199.21-32.2,50,86.63c7.35-6.67,9.06-7.39,20.57-8.47l-66-181.12C146.9,25,134.15,32.22,121.53,39.65c-3.79,2.23-5.42,6-5.6,10.37s2.36,7.45,4.42,11.1L132.6,54l3.16,5-12.34,7L131,79.15l12.06-7,3.13,5-12.15,7,7.73,13.46a10.88,10.88,0,0,1,1.33-1c3.2-1.87,6.4-3.74,9.64-5.54.4-.22,1.3-.23,1.51,0,1,1.25,1.84,2.63,2.93,4.24l-12.63,7.23,7.73,13.37,12-7,3,4.69Zm88.44,117.06a24.94,24.94,0,0,1-19.87,10.2L289.34,428a2.9,2.9,0,0,0,.54-.13c12.54-7.24,25.11-14.45,37.6-21.77a11.71,11.71,0,0,0,5.8-9.54c.44-4.52-2.06-7.87-4.29-11.62l-11.28,6.6-3.23-5.13,11.33-6.32-7.6-13.41L307,373.2l-3-5,11.34-6.36-7.8-13.45L296.23,355l-2.79-4.81,11.38-6.5-7.61-13.36c-.38.2-.88.45-1.36.72-3,1.73-6,3.5-9.06,5.19-.38.21-1.25.26-1.39,0-.93-1.36-1.72-2.82-2.65-4.41l11.52-6.52Zm-15-32.4a18.76,18.76,0,1,0,13.26,22.95A18.77,18.77,0,0,0,228.6,205.23Z"/><path class="cls-1" d="M0,263.66l4.21-2.58,8.89,15.38L8.86,279Z"/><path class="cls-1" d="M435.19,169.2l4.25-2.62,8.91,15.29-4.43,2.6Z"/><path class="cls-1" d="M279.23,433.46l2.59,4.39a8.31,8.31,0,0,1-.92.73c-4.37,2.54-8.76,5-13.1,7.61-1.11.66-1.64.43-2.21-.64a36,36,0,0,0-2-3.08Z"/><path class="cls-1" d="M188.52,4.43,173.44,14l-3.07-4.8,6.35-4c2.45-1.57,4.93-3.09,7.34-4.73,1.12-.76,1.75-.6,2.37.57S187.76,3.21,188.52,4.43Z"/><path class="cls-1" d="M226.09,214.18a9.43,9.43,0,1,1-11.6,6.65A9.59,9.59,0,0,1,226.09,214.18Zm-8.58,7.44a6.34,6.34,0,1,0,12.23,3.31,6.34,6.34,0,1,0-12.23-3.31Z"/></g></g></svg>