<svg xmlns="http://www.w3.org/2000/svg" viewBox="0 0 415.79 415.89"><defs><style>.cls-1{fill:#fff;}</style></defs><title>Asset 31</title><g id="Layer_2" data-name="Layer 2"><g id="Layer_1-2" data-name="Layer 1"><path class="cls-1" d="M99,401.5c2.57-5.38,5.08-10.64,7.59-15.9Q133,330.42,159.45,275.25c8.44-17.58,17-35.12,25.48-52.67a3.25,3.25,0,0,0-2.07-4.77c-13.52-3.77-27.07-7.47-40.56-11.34-5.82-1.67-11.54-3.7-17.32-5.53-1.22-.39-2.51-.58-3.74-.93l-106.8-29.7C3.1,167.17-2.26,157.65.9,146.3q6.28-22.56,12.56-45.12a14.57,14.57,0,0,0,.23-2c3,1.4,5.56,2.59,8.12,3.81l96.58,46c11,5.25,22.11,10.41,33.11,15.73,15.21,7.36,30.36,14.83,45.54,22.25,1.84.9,2.11.78,2.62-1.07,5-18,10-36,14.87-54.09,3.46-12.82,6.58-25.73,10.1-38.54,7.31-26.59,14.77-53.13,22.19-79.68A18.14,18.14,0,0,1,269.54.72q23.47,6.48,46.91,13c.37.1.74.24,1.16.38L229.7,198.71c.79.27,1.29.46,1.81.61q23.86,6.65,47.71,13.28,61.34,17,122.68,34.06c9.33,2.59,14.94,10.83,13.72,20a17,17,0,0,1-.49,2.3Q408.58,292.6,402,316.21c-.12.42-.28.82-.48,1.4-3.18-1.51-6.26-3-9.34-4.42q-59.3-28.34-118.61-56.67-26.19-12.5-52.43-24.91a2.66,2.66,0,0,0-4,1.85q-5.19,18.31-10.37,36.63c-3.66,12.92-7.37,25.83-11,38.76Q183,355,170.21,401.21c-1.54,5.6-4.51,10-9.77,12.62a16.37,16.37,0,0,1-11.93,1.52c-16.31-4.43-32.58-9-48.87-13.53A4.35,4.35,0,0,1,99,401.5Zm90.7-175.32L107.53,398.1a2.64,2.64,0,0,0,.46.3c13.9,3.87,27.78,7.83,41.71,11.57a12,12,0,0,0,14.43-7.28c1.27-3.46,1.91-7.14,2.91-11l-12.79-3.5.71-2.88,12.66,3.63,5-17.57L160,367.88l.58-2.91,12.84,3.64,4.87-17.44-12.71-3.45.74-3.21,12.79,3.63L184,330.69l-12.77-3.48.89-3,12.59,3.55L210.83,234C202.74,234.79,195.67,232.21,189.72,226.18ZM251.78,67.82l-1.48,5.95-12.72-3.62L233.49,85l13.17,3.59a32.41,32.41,0,0,0-1.07,3.47c-.29,1.49-.87,1.89-2.4,1.41-3.74-1.17-7.54-2.15-11.06-3.13l-26.4,94.86a25.12,25.12,0,0,1,11.06,1.6,26.81,26.81,0,0,1,9.41,6.41l83.7-175.08c-14.28-4-28.31-8-42.41-11.8a12,12,0,0,0-14,6.74c-1.43,3.38-2.2,7-3.4,11l13.44,3.63a29,29,0,0,0-1,3.41c-.26,1.62-1,1.78-2.46,1.34-3.74-1.15-7.53-2.15-11.13-3.17l-4.16,14.91,12.71,3.53-1.41,5.86-13-3.77-4,14.52ZM87,184.3l96.37,26.83c.58-9.91,1.3-11.62,8.76-20.45L18.21,107.54c-4,14.29-8.05,28.38-11.87,42.52-1.15,4.24.32,8.07,3.26,11.32s6.9,3.67,10.93,4.83l3.73-13.68L30,153.85l-3.91,13.64L40.8,171.6l3.71-13.45,5.75,1.4L46.45,173l14.94,4.2a10.88,10.88,0,0,1,.22-1.68c1-3.58,1.95-7.15,3-10.7.13-.44.77-1.07,1.1-1,1.59.19,3.16.59,5.06,1l-4,14,14.88,4.14,3.69-13.43,5.42,1.25ZM232.1,206a24.94,24.94,0,0,1-7,21.19l173,82.7a2.9,2.9,0,0,0,.29-.47c3.88-14,7.81-27.89,11.61-41.87a11.71,11.71,0,0,0-2.54-10.87c-2.85-3.53-7-4.17-11.2-5.29L392.78,264l-5.9-1.4,3.66-12.45-14.82-4.25-3.46,12.51-5.65-1.5,3.64-12.48-15-4.14-3.41,12.66-5.36-1.48,3.57-12.61-14.78-4.21c-.13.41-.31.94-.46,1.47-.94,3.35-1.85,6.71-2.84,10-.12.42-.71,1.06-1,1-1.62-.32-3.21-.81-5-1.29l3.66-12.72Zm-33.38-12.65a18.76,18.76,0,1,0,25.53,7.1A18.77,18.77,0,0,0,198.72,193.32Z"/><path class="cls-1" d="M76.4,395.09l1.2-4.79,17.12,4.76-1.27,4.75Z"/><path class="cls-1" d="M321,23l1.2-4.85,17.07,4.68-1.34,5Z"/><path class="cls-1" d="M394.67,320.84l4.93,1.32a8.31,8.31,0,0,1-.15,1.16c-1.34,4.87-2.74,9.72-4,14.61-.33,1.25-.87,1.46-2,1.09a36,36,0,0,0-3.59-.79Z"/><path class="cls-1" d="M29.52,78l-4,17.41-5.55-1.28c.6-2.56,1.15-4.94,1.71-7.33.66-2.83,1.36-5.66,1.93-8.51.27-1.32.83-1.66,2.09-1.25S28.12,77.67,29.52,78Z"/><path class="cls-1" d="M203.19,201.48a9.43,9.43,0,1,1-3.62,12.87A9.59,9.59,0,0,1,203.19,201.48Zm-.92,11.32a6.34,6.34,0,1,0,11.05-6.2,6.34,6.34,0,1,0-11.05,6.2Z"/></g></g></svg>