<svg xmlns="http://www.w3.org/2000/svg" viewBox="0 0 453.61 455.35"><defs><style>.cls-1{fill:#fff;}</style></defs><title>Asset 32</title><g id="Layer_2" data-name="Layer 2"><g id="Layer_1-2" data-name="Layer 1"><path class="cls-1" d="M238.87,448.47c-.76-5.91-1.5-11.69-2.24-17.47q-7.72-60.68-15.43-121.37c-2.44-19.35-4.77-38.72-7.14-58.07a3.25,3.25,0,0,0-4.33-2.88c-13.41,4.16-26.79,8.4-40.23,12.47-5.8,1.75-11.7,3.15-17.55,4.74-1.24.34-2.42.87-3.65,1.25l-105.84,33c-11.24,3.5-20.9-1.59-24.41-12.84q-7-22.36-13.91-44.72a14.57,14.57,0,0,0-.88-1.79c3.26-.44,6.07-.84,8.89-1.21l106.07-13.74c12.12-1.57,24.22-3.24,36.35-4.73,16.77-2.06,33.56-4,50.33-6,2-.24,2.19-.49,1.62-2.32-5.6-17.84-11.14-35.7-16.83-53.51-4-12.65-8.43-25.19-12.41-37.86-8.27-26.3-16.4-52.65-24.56-79a18.14,18.14,0,0,1,12.12-23.13Q188.08,12,211.34,4.78c.37-.12.75-.2,1.18-.31l26.21,202.75c.81-.2,1.34-.31,1.85-.47q23.65-7.35,47.29-14.71,60.78-18.95,121.55-37.9c9.24-2.88,18.43,1,22.39,9.38a17,17,0,0,1,.84,2.2q7.29,23.4,14.56,46.81c.13.41.21.84.36,1.44-3.49.46-6.86.91-10.24,1.35Q372.12,223.66,306.93,232q-28.79,3.7-57.56,7.5a2.66,2.66,0,0,0-2.32,3.7q5.57,18.2,11.15,36.4c3.93,12.84,7.81,25.7,11.79,38.52q14.22,45.77,28.55,91.5c1.74,5.54,1.61,10.81-1.36,15.9a16.37,16.37,0,0,1-9.2,7.74c-16.11,5.13-32.26,10.1-48.4,15.13A4.35,4.35,0,0,1,238.87,448.47ZM220,252l24.16,189a2.64,2.64,0,0,0,.55,0c13.78-4.28,27.59-8.48,41.32-12.89a12,12,0,0,0,8.18-13.94c-.81-3.59-2.27-7-3.54-10.84l-12.65,4-1-2.81,12.6-3.81-5.29-17.5-12.52,4-1.09-2.76,12.76-3.9-5.37-17.29-12.55,4-1.12-3.1,12.71-3.88-5.35-17.31-12.61,4-.88-3,12.51-3.84-28.92-93C235.64,252.16,228.29,253.82,220,252ZM186.31,85.27l2,5.8-12.65,3.86,4.63,14.73,13-4.12a32.41,32.41,0,0,0,1,3.5c.57,1.4.3,2.06-1.25,2.49-3.78,1-7.5,2.29-11,3.37l29.24,94a25.12,25.12,0,0,1,10.16-4.65,26.81,26.81,0,0,1,11.39.29L208.23,12.06c-14.16,4.39-28.13,8.62-42,13.08a12,12,0,0,0-8.1,13.25c.63,3.61,2,7.1,3.1,11.08l13.26-4.24a29,29,0,0,0,1,3.39c.66,1.51.12,2-1.34,2.46-3.77,1.06-7.49,2.27-11.07,3.37l4.59,14.79,12.59-3.93,2,5.69-12.94,3.87,4.5,14.37ZM111,272.49l95.52-29.71c-4.89-8.64-5.21-10.46-3.73-21.93L11.59,245.29c4.38,14.18,8.62,28.21,13.08,42.16,1.34,4.19,4.65,6.61,8.88,7.75s7.78-.66,11.8-1.87L41.07,279.8l5.53-2,4.11,13.58,14.6-4.53-4.18-13.31,5.59-1.94L70.82,285l14.83-4.57a10.88,10.88,0,0,1-.73-1.53c-1.12-3.53-2.24-7.07-3.28-10.62-.13-.44.07-1.32.37-1.47,1.44-.7,3-1.22,4.79-1.92l4.27,13.91,14.75-4.59-4.18-13.28,5.23-1.89ZM244.68,212a24.94,24.94,0,0,1,5.57,21.62l190.2-24.31a2.9,2.9,0,0,0,0-.56c-4.3-13.83-8.56-27.67-12.95-41.48a11.71,11.71,0,0,0-8-7.76c-4.31-1.42-8.13.28-12.28,1.62l4,12.46-5.71,2-3.67-12.44L387,167.67l3.88,12.39-5.56,1.81-3.71-12.46L366.78,174l4,12.49-5.3,1.66-3.84-12.53-14.7,4.48c.11.42.24,1,.41,1.49,1,3.33,2.08,6.64,3.06,10,.12.42,0,1.28-.26,1.37-1.54.61-3.13,1.06-4.88,1.61l-3.82-12.67Zm-34.91,7.47a18.76,18.76,0,1,0,25.31-7.88A18.77,18.77,0,0,0,209.77,219.49Z"/><path class="cls-1" d="M216.39,455.35l-1.59-4.67,17-5.28,1.51,4.68Z"/><path class="cls-1" d="M220.16,10l-1.62-4.72L235.41,0,237,4.9Z"/><path class="cls-1" d="M443.55,220.39l4.86-1.56a8.31,8.31,0,0,1,.51,1.06c1.51,4.82,3,9.66,4.53,14.46.4,1.23.06,1.7-1.12,2a36,36,0,0,0-3.44,1.28Z"/><path class="cls-1" d="M5.08,214.34l6,16.83L5.76,233.1c-.89-2.47-1.71-4.78-2.54-7.08-1-2.74-1.93-5.49-3-8.2-.49-1.26-.2-1.84,1.08-2.18S3.72,214.82,5.08,214.34Z"/><path class="cls-1" d="M218,223.92a9.43,9.43,0,1,1,3.93,12.78A9.59,9.59,0,0,1,218,223.92Zm5.37,10a6.34,6.34,0,1,0,5.93-11.2,6.34,6.34,0,1,0-5.93,11.2Z"/></g></g></svg>