<svg xmlns="http://www.w3.org/2000/svg" viewBox="0 0 413.39 415.01"><defs><style>.cls-1{fill:#fff;}</style></defs><title>Asset 33</title><g id="Layer_2" data-name="Layer 2"><g id="Layer_1-2" data-name="Layer 1"><path class="cls-1" d="M317.76,398.74l-9.88-14.59q-34.26-50.68-68.5-101.37c-10.91-16.17-21.71-32.41-32.56-48.61a3.25,3.25,0,0,0-5.16-.62c-10.09,9.76-20.13,19.58-30.29,29.26-4.38,4.18-9,8.09-13.53,12.15-1,.86-1.77,1.87-2.69,2.76L75.54,354.85c-8.46,8.19-19.37,8-27.57-.46q-16.29-16.82-32.58-33.64a14.57,14.57,0,0,0-1.59-1.2c2.71-1.87,5-3.49,7.39-5.09l88.48-60.09c10.11-6.87,20.16-13.81,30.31-20.61,14-9.4,28.15-18.7,42.22-28,1.71-1.13,1.74-1.42.4-2.8-13-13.4-26-26.84-39.15-40.17-9.31-9.47-18.88-18.69-28.15-28.19Q86.44,104.92,57.78,75.11A18.14,18.14,0,0,1,58.17,49q17.45-17,35-33.88c.28-.27.58-.52.91-.81L208.86,183.47c.63-.55,1.05-.88,1.44-1.25q17.79-17.22,35.58-34.45,45.71-44.31,91.41-88.63c7-6.74,16.9-7.42,24.21-1.72A17,17,0,0,1,363.24,59q17.06,17.6,34.1,35.22c.3.31.57.66,1,1.12-2.91,2-5.71,3.91-8.54,5.82Q335.34,138,280.91,174.84q-24,16.28-48,32.65a2.66,2.66,0,0,0-.41,4.35l26.36,27.46c9.3,9.69,18.56,19.42,27.9,29.07q33.33,34.44,66.74,68.8c4,4.16,6.31,8.92,6,14.81A16.37,16.37,0,0,1,354.74,363c-12.07,11.84-24.24,23.56-36.38,35.33A4.35,4.35,0,0,1,317.76,398.74ZM212.35,231.85,319.14,389.67a2.64,2.64,0,0,0,.49-.24c10.37-10,20.8-20,31.07-30.14a12,12,0,0,0,1-16.13c-2.34-2.84-5.2-5.25-8-8.08l-9.49,9.26-2.13-2.07,9.53-9.09L329,319.94l-9.39,9.19-2.22-2,9.63-9.24-12.59-13-9.4,9.22-2.4-2.26,9.59-9.2-12.58-13-9.45,9.26L288,296.6l9.43-9.07-67.73-69.94C226.36,225,220.56,229.77,212.35,231.85ZM107.09,98.25l4.39,4.28-9.55,9.15,10.78,11.06,9.76-9.55a32.41,32.41,0,0,0,2.46,2.68c1.14,1,1.19,1.7,0,2.79-2.9,2.64-5.66,5.42-8.29,8l68.49,70.73a25.12,25.12,0,0,1,7-8.73,26.81,26.81,0,0,1,10.29-4.88L93.64,23C83,33.33,72.42,43.4,62,53.65a12,12,0,0,0-1.26,15.48c2.19,2.94,5,5.46,7.76,8.49l9.92-9.76a29,29,0,0,0,2.45,2.56c1.27,1,1,1.78-.09,2.8-2.88,2.65-5.66,5.41-8.36,8L83.22,92.34l9.47-9.19L97,87.34l-9.81,9.28,10.5,10.8Zm17.2,201.06,71.86-69.59c-8.26-5.51-9.37-7-13.22-17.89l-159.65,108C33.59,330.54,43.69,341.15,54,351.59c3.08,3.13,7.13,3.8,11.42,2.91s6.65-4.1,9.69-7l-9.92-10.14,4-4.27L79,343.38l11-10.62-9.73-10,4.11-4.26,9.7,10.09,11.18-10.77a10.88,10.88,0,0,1-1.34-1c-2.6-2.64-5.18-5.3-7.71-8-.31-.33-.54-1.21-.33-1.47,1-1.27,2.1-2.42,3.41-3.87l10.08,10.49,11.1-10.74-9.72-10,3.82-4Zm92.05-114.25a24.94,24.94,0,0,1,14.72,16.79L389.87,94.41a2.9,2.9,0,0,0-.26-.49c-10.08-10.4-20.12-20.84-30.26-31.18a11.71,11.71,0,0,0-10.66-3.3c-4.49.68-7.13,3.91-10.23,7l9.15,9.34-4.19,4.38-8.89-9.45L323.37,81.32l9.05,9.31-4.15,4.12-8.93-9.45L308.2,96.12l9.2,9.34-4,3.88-9.07-9.46-11.11,10.62c.29.32.65.75,1,1.14,2.42,2.51,4.86,5,7.24,7.53.3.32.56,1.15.38,1.34-1.1,1.23-2.32,2.36-3.63,3.64l-9.13-9.59Zm-27.79,22.41a18.76,18.76,0,1,0,19-18.44A18.77,18.77,0,0,0,188.55,207.47Z"/><path class="cls-1" d="M300.8,415l-3.52-3.45L310,399.2l3.46,3.5Z"/><path class="cls-1" d="M103.38,15.84,99.8,12.36,112.47,0l3.6,3.67Z"/><path class="cls-1" d="M397.63,102.88l3.63-3.58a8.31,8.31,0,0,1,.93.71c3.52,3.62,7,7.28,10.57,10.86.91.92.82,1.49-.09,2.3a36,36,0,0,0-2.5,2.69Z"/><path class="cls-1" d="M3.52,295.17l13,12.3-3.91,4.14-5.46-5.17c-2.11-2-4.2-4-6.37-6-1-.9-1-1.55,0-2.43S2.52,296.21,3.52,295.17Z"/><path class="cls-1" d="M197.85,207.74a9.43,9.43,0,1,1,9.27,9.63A9.59,9.59,0,0,1,197.85,207.74Zm9.3,6.52a6.34,6.34,0,1,0,.24-12.67,6.34,6.34,0,1,0-.24,12.67Z"/></g></g></svg>