<svg xmlns="http://www.w3.org/2000/svg" viewBox="0 0 405.1 405.04"><defs><style>.cls-1{fill:#fff;}</style></defs><title>Asset 34</title><g id="Layer_2" data-name="Layer 2"><g id="Layer_1-2" data-name="Layer 1"><path class="cls-1" d="M386.9,324.63l-15.24-8.69q-52.9-30.23-105.79-60.47c-16.86-9.65-33.65-19.41-50.48-29.12a3.23,3.23,0,0,0-4.88,1.72c-4.72,13.16-9.38,26.34-14.2,39.47-2.08,5.66-4.51,11.2-6.75,16.8-.47,1.19-.76,2.45-1.19,3.65q-18.6,52-37.22,103.93c-4,11-13.79,15.68-24.84,11.72q-22-7.87-43.91-15.74a14.51,14.51,0,0,0-2-.38c1.6-2.86,3-5.34,4.37-7.79l52.64-92.61c6-10.58,11.94-21.21,18-31.75,8.41-14.58,16.93-29.09,25.4-43.63,1-1.77.93-2-.87-2.68-17.55-6.24-35.08-12.53-52.65-18.68-12.48-4.37-25.09-8.4-37.55-12.82-25.88-9.18-51.71-18.51-77.54-27.81a18.06,18.06,0,0,1-11.13-23.5q8.13-22.84,16.35-45.65c.13-.36.29-.72.46-1.13l177,100.67c.32-.77.55-1.25.73-1.75Q204,155.19,212.3,132,233.66,72.28,255,12.58C258.26,3.5,266.84-1.48,275.88.39a16.92,16.92,0,0,1,2.25.65l46,16.48c.41.15.8.34,1.36.58-1.72,3-3.39,6-5.07,9Q288,83.91,255.52,140.77,241.2,165.88,227,191a2.65,2.65,0,0,0,1.55,4.07l35.64,12.95c12.57,4.57,25.12,9.19,37.71,13.71q44.93,16.11,89.89,32.13c5.45,1.94,9.56,5.2,11.83,10.61a16.3,16.3,0,0,1,.65,12c-5.58,15.88-11.3,31.71-17,47.56A4.34,4.34,0,0,1,386.9,324.63ZM219.32,221.85l164.83,94.07a2.63,2.63,0,0,0,.33-.43c4.85-13.53,9.79-27,14.51-40.6A12,12,0,0,0,392.8,260c-3.34-1.51-7-2.41-10.75-3.68l-4.41,12.45-2.81-.92,4.52-12.31-17.08-6.28-4.35,12.34-2.85-.79,4.55-12.49-17-6.1-4.34,12.37-3.14-1,4.53-12.44-17-6.12-4.38,12.43-2.91-1.1,4.44-12.25-91.28-32.72C228.81,209.55,225.74,216.39,219.32,221.85ZM66.51,148.76l5.8,1.9L67.8,163l14.5,5.15,4.52-12.82a32.28,32.28,0,0,0,3.37,1.31c1.46.39,1.82,1,1.23,2.49-1.43,3.63-2.68,7.34-3.91,10.76L179.82,203a25,25,0,0,1,2.39-10.87,26.7,26.7,0,0,1,7.05-8.89L21.41,87.45c-5,13.89-10,27.54-14.78,41.27a12,12,0,0,0,5.68,14.39c3.25,1.67,6.83,2.7,10.67,4.17l4.57-13.09a28.83,28.83,0,0,0,3.32,1.21c1.59.38,1.7,1.14,1.15,2.54-1.41,3.63-2.68,7.32-4,10.82L42.58,154,47,141.61l5.72,1.82L48,156l14.13,5ZM170.29,320.87l33.62-93.79c-9.8-1.29-11.44-2.13-19.68-10.18L89.07,383.64c13.91,5,27.61,10.05,41.38,14.87,4.13,1.45,8,.26,11.48-2.42s4.14-6.58,5.59-10.51l-13.32-4.7,1.73-5.59,13.26,4.87,5.15-14.32-13.09-4.65,1.8-5.61,13.1,4.75,5.25-14.54a10.83,10.83,0,0,1-1.65-.33c-3.48-1.22-7-2.45-10.41-3.76-.42-.16-1-.84-.95-1.17.31-1.57.81-3.09,1.34-5l13.63,4.94L168.55,326l-13.07-4.63,1.63-5.29Zm32-142.57a24.84,24.84,0,0,1,20.54,8.53L317.51,21a2.88,2.88,0,0,0-.45-.33c-13.58-4.87-27.14-9.78-40.75-14.56a11.67,11.67,0,0,0-11,1.73c-3.71,2.58-4.65,6.63-6.07,10.74l12.28,4.32-1.82,5.76-12.1-4.54-5.3,14.41,12.18,4.34-1.9,5.5-12.13-4.52-5.2,14.58,12.33,4.3-1.85,5.22-12.27-4.46-5.25,14.38c.4.16.91.38,1.43.57,3.26,1.18,6.53,2.32,9.78,3.55.4.15,1,.78.93,1-.44,1.59-1,3.13-1.64,4.85l-12.37-4.56Zm-15,32.24a18.69,18.69,0,1,0,8.9-24.85A18.69,18.69,0,0,0,187.33,210.54Z"/><path class="cls-1" d="M378.9,346.63l-4.67-1.54,6-16.66,4.63,1.61Z"/><path class="cls-1" d="M27,76.75l-4.73-1.54L28.11,58.6l4.83,1.69Z"/><path class="cls-1" d="M328.16,25.13l1.67-4.8a8.27,8.27,0,0,1,1.14.23c4.74,1.69,9.46,3.42,14.22,5.06,1.22.42,1.39,1,.94,2.1a35.86,35.86,0,0,0-1,3.5Z"/><path class="cls-1" d="M60.55,370.27l17,5.28L75.88,381l-7.15-2.22c-2.77-.86-5.52-1.76-8.31-2.53-1.3-.36-1.59-.94-1.09-2.17S60.12,371.63,60.55,370.27Z"/><path class="cls-1" d="M195.73,206.63a9.45,9.45,0,1,1,12.61,4.56A9.61,9.61,0,0,1,195.73,206.63ZM207,208.37a6.35,6.35,0,1,0-5.4-11.51,6.35,6.35,0,1,0,5.4,11.51Z"/></g></g></svg>