<svg xmlns="http://www.w3.org/2000/svg" viewBox="0 0 204.94 353.01"><defs><style>.cls-1,.cls-3{fill:#fff;}.cls-2,.cls-4{fill:none;}.cls-3,.cls-4{stroke:#fff;stroke-miterlimit:10;stroke-width:5px;}</style></defs><title>Asset 39</title><g id="Layer_2" data-name="Layer 2"><g id="Layer_1-2" data-name="Layer 1"><path class="cls-1" d="M127.42,283.57"/><path class="cls-1" d="M119.68,349.65l-.07-57.32a7.34,7.34,0,0,1,7.33-7.35h8.94a7.34,7.34,0,0,1,7.35,7.33l.07,57.32Z"/><path class="cls-1" d="M58,222.37l24.87,0,0-24.87L58,197.5Zm6.2-18.66,13.68,0,0,13.68-13.68,0Z"/><path class="cls-1" d="M87.85,222.33l24.87,0,0-24.87-24.87,0Zm5-18.66,13.68,0,0,13.68-13.68,0Z"/><path class="cls-1" d="M117.7,222.29l24.87,0,0-24.87-24.87,0Zm5-18.66,13.68,0,0,13.68-13.68,0Z"/><circle class="cls-2" cx="139.55" cy="324.2" r="1.91" transform="translate(-0.39 0.17) rotate(-0.07)"/><path class="cls-1" d="M89.67,10"/><path class="cls-3" d="M93.12,18.22"/><path class="cls-2" d="M96.72,5.75"/><polygon class="cls-2" points="97.15 11.12 162.26 71.25 162.83 167.37 32.6 166.31 33.62 131.71 32.06 67.52 97.15 11.12"/><polyline class="cls-4" points="3.02 87.66 28.28 65.03 97.14 3.32 193.25 85.13"/><polyline class="cls-4" points="28.28 65.03 28.06 134.39 25.89 170.79 24.21 199.04 2.88 350.51 201.99 350.27 176.17 196.31 169.43 132.63 169.22 64.67"/><line class="cls-4" x1="172.56" y1="170.45" x2="25.89" y2="170.79"/><line class="cls-4" x1="17.66" y1="245.57" x2="184.38" y2="245.29"/><line class="cls-4" x1="11.41" y1="289.91" x2="44.95" y2="290.18"/><line class="cls-4" x1="9.21" y1="305.52" x2="29.57" y2="305.59"/><line class="cls-4" x1="45.19" y1="320.39" x2="7.13" y2="320.29"/></g></g></svg>