<svg xmlns="http://www.w3.org/2000/svg" viewBox="0 0 220.88 68.62"><defs><style>.cls-1{fill:#fff;}</style></defs><title>Asset 2</title><g id="Layer_2" data-name="Layer 2"><g id="Layer_1-2" data-name="Layer 1"><path class="cls-1" d="M61,7.4,59,5a2.62,2.62,0,0,0,0-1l1.86-2.38L59.27,0,57,1.92a2.64,2.64,0,0,0-1.07,0L53.6,0,52,1.62,53.85,4a2.61,2.61,0,0,0,0,1l-2,2.38L53.48,9,55.93,7.1a2.53,2.53,0,0,0,1,0L59.39,9Z"/><path class="cls-1" d="M28.34,33.94l-3.75-4.48a5,5,0,0,0,0-2L28.12,23l-3.06-3.06-4.35,3.65a5,5,0,0,0-2,0l-4.37-3.64L11.25,23l3.53,4.49a4.94,4.94,0,0,0,0,2L11,33.94,14.09,37l4.63-3.64a4.79,4.79,0,0,0,1.91,0L25.28,37Z"/><path class="cls-1" d="M220.83,65A32.3,32.3,0,0,0,188.63,33a60.67,60.67,0,0,0-105.4,4.56,28.44,28.44,0,0,0-31.91,14A13.93,13.93,0,0,0,34.09,61.92H23a3.35,3.35,0,1,0,0,6.7h194.5a3.35,3.35,0,0,0,3.35-3.35C220.88,65.18,220.84,65.11,220.83,65Z"/><path class="cls-1" d="M11.45,61.92H3.35a3.35,3.35,0,0,0,0,6.7h8.1a3.35,3.35,0,0,0,0-6.7Z"/></g></g></svg>