<svg xmlns="http://www.w3.org/2000/svg" viewBox="0 0 332.9 365.07"><defs><style>.cls-1{fill:#fff;}</style></defs><title>Asset 1</title><g id="Layer_2" data-name="Layer 2"><g id="Layer_1-2" data-name="Layer 1"><rect class="cls-1" x="324.19" y="76.41" width="4.33" height="14.19" transform="translate(36.54 255.23) rotate(-45)"/><rect class="cls-1" x="75.96" y="4.38" width="14.19" height="4.33" transform="translate(19.7 60.65) rotate(-45)"/><rect class="cls-1" x="4.38" y="241.11" width="4.33" height="14.19" transform="translate(-173.59 77.33) rotate(-45)"/><path class="cls-1" d="M132.77,262.5h19.8V242.7h-19.8ZM137.1,247h11.14v11.14H137.1Z"/><path class="cls-1" d="M156.59,262.5h19.8V242.7h-19.8ZM160.92,247h11.14v11.14H160.92Z"/><path class="cls-1" d="M180.41,262.5h19.8V242.7h-19.8ZM184.74,247h11.14v11.14H184.74Z"/><path class="cls-1" d="M290.5,44.59a14.58,14.58,0,0,0-20.59,0l-70.86,70.86L164.18,86,162,87.87l0,0-3.83,3.43-18.33,16.23L73.17,12.32,44.51,41a14.48,14.48,0,0,0,0,20.46l69.2,69.2-5.18,4.59v.48l-20.08,18,2.89,3.22,17.19-15.39V191.3L11.88,259l28.58,28.58a14.61,14.61,0,0,0,20.64,0l44.27-44.27L88.07,365.07h160L233.64,283.4,259,319.55,287.47,291a14.71,14.71,0,0,0,0-20.77l-65-65V141.68l16.1,13.47,2.78-3.32L225.6,138.67l93.5-65.48ZM236.82,242.34l8.3-8.3,9,9-8.3,8.3,3.06,3.06,8.3-8.3,9,9-8.3,8.3,3.06,3.06,8.3-8.3,9,9-8.3,8.3L273,278.5l8.3-8.3,3.13,3.13a10.37,10.37,0,0,1,0,14.65l-24.86,24.86L231.85,273.3,226,264.9l-28-40-1.28-1.83-1.75-2.5-1.28-1.83-23.83-34a19.68,19.68,0,0,0,14.69-11.29l33.6,33.6,4.33,4.33,19.6,19.6-8.3,8.3Zm-134.37-2.26-7.88-7.88-3.06,3.06,7.88,7.88-9,9-7.88-7.88-3.06,3.06,7.88,7.88-9,9-7.88-7.88-3.06,3.06,7.88,7.88-9,9-7.88-7.88-3.06,3.06,7.88,7.88L58,284.5a10.27,10.27,0,0,1-14.52,0L18.58,259.57l89.94-63,4.33-3,34.55-24.19A19.71,19.71,0,0,0,159,183.49l-35.27,35.27-1.83,1.83-2.5,2.5-1.83,1.83-6.13,6.13-5.09,5.09ZM94.54,89.86l-7.75,7.75-9-9,7.75-7.75-3.06-3.06-7.75,7.75-9-9,7.75-7.75-3.06-3.06L62.68,73.5l-9-9,7.75-7.75L58.38,53.7l-7.75,7.75-3.06-3.06a10.15,10.15,0,0,1,0-14.34l25-25,64,91.37.09.13,2.41,3.44.09.13,22.6,32.28a19.69,19.69,0,0,0-13.66,12.55L120.23,131l-.21-.21L117.16,128l-.21-.21-27.1-27.1,7.75-7.75Zm87.38,74.85c0,.22,0,.44,0,.67,0,.43,0,.84-.06,1.26s-.07.66-.12,1a15.21,15.21,0,0,1-.44,2c0,.15-.09.29-.13.44A15.34,15.34,0,0,1,168,180.63c-.34,0-.68,0-1,.05l-.35,0a15.4,15.4,0,0,1-1.65-.09c-.26,0-.51-.08-.77-.12a15,15,0,0,1-3.27-.9,15.19,15.19,0,0,1-9.56-13c0-.39-.06-.78-.06-1.18,0-.06,0-.11,0-.17,0-.44,0-.87.07-1.3s.12-1,.22-1.48a15.19,15.19,0,0,1,.4-1.59,15.35,15.35,0,0,1,12.22-10.57l.25,0a15.29,15.29,0,0,1,2.16-.17l.37,0,.45,0a15.29,15.29,0,0,1,2.43.31l.25.07A15.33,15.33,0,0,1,181.88,164C181.9,164.24,181.91,164.48,181.92,164.72Zm-17.24,20.21,23.7,33.84h-58.5l34-34C164.12,184.84,164.4,184.9,164.68,184.93Zm-1.19-92.58,31.94,26.73-26.77,26.77a19.76,19.76,0,0,0-2-.1h0l-24.2-34.55,18.65-16.7Zm58.68,43.45-3.67,2.57-.36.26-32.3,22.62A19.69,19.69,0,0,0,173.59,147l25.17-25.17.54-.54,2.54-2.54.53-.53L229.67,91l7.79,7.79L239,97.21l-7.79-7.79L241.73,78.9l7.79,7.79L251,85.16l-7.79-7.79,10.52-10.52,7.79,7.79,1.53-1.53-7.79-7.79,10.52-10.52,7.79,7.79L275.15,61l-7.79-7.79L273,47.65a10.25,10.25,0,0,1,14.47,0l25,25-89.94,63Zm-109.31,1.86,4.15-3.71L147.06,164c0,.1,0,.21,0,.31l-34.2,23.95Zm-2.39,100.54,13.27-13.27h69L227.76,275l.71,4H104.66Zm75.82,122.35v-45.8a5.91,5.91,0,0,1,5.91-5.91H199a5.91,5.91,0,0,1,5.91,5.91v45.8Zm56.66.21H209.23v-46A10.25,10.25,0,0,0,199,304.5h-6.81A10.25,10.25,0,0,0,182,314.73v46H93.06l2.43-17.1H124v-4.33H96.1l1.15-8.08h13.25v-4.33H97.86L99,319.09h25v-4.33H99.59L104,283.34H229.24Zm-57-192a19.63,19.63,0,0,0,.27-2.53l31.89-22.33v57Z"/><path class="cls-1" d="M173.19,161.88a7.5,7.5,0,0,0-1.28-1.78l0,0a7.49,7.49,0,0,0-1.76-1.26h0a7.25,7.25,0,0,0-8.08.74l0,0a7.5,7.5,0,0,0-1.48,1.54l0,0a7.43,7.43,0,0,0-1,2v0a7,7,0,0,0,.53,5.65v0a7.49,7.49,0,0,0,1.26,1.76l0,0a7.49,7.49,0,0,0,1.75,1.27h0a7,7,0,0,0,5.67.55h0a7.43,7.43,0,0,0,2-1l0,0a7.5,7.5,0,0,0,1.54-1.48l0,0a7.33,7.33,0,0,0,1-7.6C173.39,162.21,173.28,162.05,173.19,161.88Zm-2.27,6.6a5.32,5.32,0,0,1-1.58,1.44h0a5.24,5.24,0,0,1-2.3.72h0c-.11,0-.22,0-.34,0a5.25,5.25,0,0,1-1.88-.36h0a5.31,5.31,0,0,1-1.84-1.18l0,0a5.31,5.31,0,0,1-1.18-1.84v0a5.25,5.25,0,0,1-.35-1.85c0-.12,0-.22,0-.34v0a5.24,5.24,0,0,1,.72-2.3v0a5.32,5.32,0,0,1,1.44-1.58l0,0a5.16,5.16,0,0,1,4.93-.65h0a5.31,5.31,0,0,1,1.84,1.18l0,0a5.31,5.31,0,0,1,1.18,1.84v0a5.18,5.18,0,0,1-.64,5Z"/><circle class="cls-1" cx="199.89" cy="334.68" r="1.54"/></g></g></svg>