<?xml version="1.0" encoding="UTF-8"?>
<svg width="50px" height="72px" viewBox="0 0 50 72" version="1.1" xmlns="http://www.w3.org/2000/svg" xmlns:xlink="http://www.w3.org/1999/xlink">
    <!-- Generator: Sketch 47.1 (45422) - http://www.bohemiancoding.com/sketch -->
    <title>Group 15</title>
    <desc>Created with Sketch.</desc>
    <defs></defs>
    <g id="Page-1" stroke="none" stroke-width="1" fill="none" fill-rule="evenodd">
        <g id="Desktop-HD" transform="translate(-754.000000, -4203.000000)">
            <g id="Group-15" transform="translate(756.000000, 4205.000000)">
                <g id="Group-4">
                    <rect id="Rectangle-path" fill="#4BBCCE" fill-rule="nonzero" x="5.22486388" y="66.1646932" width="41.0280157" height="3"></rect>
                    <path d="M46.2528796,28.2651794 C46.2528796,7.75117161 30.8673737,7.75117161 30.8673737,7.75117161 C30.8673737,7.75117161 28.3031227,0.0584186689 23.1746207,0.0584186689 C23.1746207,2.62266965 23.1746207,7.75117161 23.1746207,7.75117161 L23.1746207,9.45868469 L20.6103698,10.3154226 L12.9176168,12.8796736 L12.9176168,15.4439245 L0.0963619223,23.1366775 L0.0963619223,28.2651794 L2.6606129,33.3936814 L10.3533658,33.3936814 L15.4818678,28.2651794 L25.7388717,28.2651794 C25.7388717,28.2651794 10.3533658,35.9579324 10.3533658,56.4719402 L41.1243776,56.4719402 C35.9958756,41.0864343 46.2528796,48.7791873 46.2528796,28.2651794 Z" id="Shape" stroke="#3F84C5" stroke-width="2.47" stroke-linecap="round" stroke-linejoin="round" fill-rule="nonzero"></path>
                    <path d="M18.0461188,18.0081755 L18.0461188,16.4439245 L18.0461188,16.4439245 C18.0461188,15.8916398 18.493834,15.4439245 19.0461188,15.4439245 L23.1746207,15.4439245 C21.9314817,18.2332788 18.0461188,18.0081755 18.0461188,18.0081755 Z" id="Path" fill="#4BBCCE"></path>
                    <rect id="Rectangle-path" fill="#4BBCCE" fill-rule="nonzero" x="8.14011537" y="60.5159328" width="35.1975127" height="2.56425098"></rect>
                </g>
                <rect id="Rectangle-17" fill="#3F84C5" x="39.9049146" y="12.0584187" width="2.43376576" height="15.940577"></rect>
                <rect id="Rectangle-17-Copy" fill="#3F84C5" x="35.3412747" y="9.05841867" width="2.43376576" height="27.4415813"></rect>
            </g>
        </g>
    </g>
</svg>