<?xml version="1.0" encoding="UTF-8"?>
<svg width="219px" height="208px" viewBox="0 0 219 208" version="1.1" xmlns="http://www.w3.org/2000/svg" xmlns:xlink="http://www.w3.org/1999/xlink">
    <!-- Generator: Sketch 47.1 (45422) - http://www.bohemiancoding.com/sketch -->
    <title>Group 14</title>
    <desc>Created with Sketch.</desc>
    <defs></defs>
    <g id="Page-1" stroke="none" stroke-width="1" fill="none" fill-rule="evenodd">
        <g id="Desktop-HD" transform="translate(-816.000000, -956.000000)">
            <g id="Group-14" transform="translate(816.000000, 958.000000)">
                <g id="Group-9" transform="translate(110.500000, 102.500000) scale(-1, 1) rotate(-270.000000) translate(-110.500000, -102.500000) translate(8.500000, 38.500000)" stroke="#3F84C5">
                    <g id="Group-8" transform="translate(0.448838, 0.040000)">
                        <path d="M154.41176,126.855263 C128.87352,126.855263 122.546646,104.49056 122.546646,96.30336 C122.546646,82.84096 133.374806,78.06304 142.646166,78.06304 C152.148246,78.06304 154.40952,84.71808 154.40952,90.61376 C154.40952,94.8832 151.877206,97.98112 146.454166,97.98112 C144.335126,97.98112 143.702156,98.240963 143.023436,97.470403 C141.166476,95.360323 141.545036,92.152643 141.594316,91.794243 C143.364618,91.8796489 144.273741,92.116255 144.321686,92.5040613 C144.395286,93.0993869 144.243079,94.1712207 144.321686,94.3168135 C144.400292,94.4624064 145.535766,94.62784 146.451926,94.62784 C149.074966,94.62784 151.02936,93.40928 151.02936,90.616 C151.02936,88.40512 151.453846,81.41632 142.643926,81.41632 C139.850646,81.41632 125.922326,82.13536 125.922326,96.30336 C125.922326,104.15008 131.51672,123.501983 154.40952,123.501983 C185.45368,123.501983 198.769366,102.02432 198.769366,79.7408 C198.769366,54.75584 176.261846,5.77376 124.233366,5.77376 C74.2791257,5.77376 3.92744567,43.13248 3.92744567,126.18496 L0.549525672,126.18496 C0.549525672,79.45856 22.7344857,50.28704 41.3444057,34.0448 C64.3671257,13.94976 94.5802457,2.42272 124.233366,2.42272 C155.353686,2.42272 174.169686,18.65376 184.475926,32.27072 C196.683926,48.40096 202.149526,67.73664 202.149526,79.7408 C202.149526,92.37664 197.983126,104.08512 190.414166,112.70912 C181.716246,122.62336 169.646,126.855263 154.41176,126.855263 Z" id="Shape" stroke-width="2.24" fill="#3F84C5" fill-rule="nonzero"></path>
                        <rect id="Rectangle-14" stroke-width="5.5328" x="0.549525672" y="0.18272" width="201.6" height="125.44"></rect>
                        <rect id="Rectangle-14" stroke-width="5.5328" x="122.546641" y="0.18272" width="79.602885" height="78.9936"></rect>
                        <rect id="Rectangle-14-Copy" stroke-width="5.5328" x="122.544406" y="79.17632" width="30.3112762" height="18.4591702"></rect>
                        <rect id="Rectangle-14-Copy" stroke-width="5.5328" x="143.003782" y="79.17632" width="9.85190008" height="18.4591702"></rect>
                        <rect id="Rectangle-14" stroke-width="5.5328" x="0.549525672" y="0.18272" width="121.99488" height="125.44"></rect>
                    </g>
                </g>
                <rect id="Rectangle-15" fill="#4BBCCE" x="191.405178" y="22.5" width="5.49615751" height="160"></rect>
                <rect id="Rectangle-15-Copy" fill="#4BBCCE" x="213.306513" y="52.5" width="5.49615751" height="100"></rect>
                <g id="Group-10" transform="translate(14.000000, 102.500000) scale(-1, 1) translate(-14.000000, -102.500000) translate(0.000000, 22.500000)" fill="#4BBCCE">
                    <rect id="Rectangle-15-Copy-2" x="0.390717574" y="0" width="5.49615751" height="160"></rect>
                    <rect id="Rectangle-15-Copy-3" x="22.2920526" y="30" width="5.49615751" height="100"></rect>
                </g>
            </g>
        </g>
    </g>
</svg>