<?xml version="1.0" encoding="UTF-8"?>
<svg width="43px" height="71px" viewBox="0 0 43 71" version="1.1" xmlns="http://www.w3.org/2000/svg" xmlns:xlink="http://www.w3.org/1999/xlink">
    <!-- Generator: Sketch 47.1 (45422) - http://www.bohemiancoding.com/sketch -->
    <title>Group 11</title>
    <desc>Created with Sketch.</desc>
    <defs></defs>
    <g id="Page-1" stroke="none" stroke-width="1" fill="none" fill-rule="evenodd">
        <g id="Desktop-HD" transform="translate(-475.000000, -4198.000000)">
            <g id="Group-11" transform="translate(477.000000, 4199.000000)">
                <path d="M3.84944322,0.76646341 L35.9339166,0.76646341 L35.9339166,0.76646341 C37.9801316,0.76646341 39.6389166,2.42524841 39.6389166,4.47146341 L39.6389166,9.0071644 L0.144443225,9.0071644 L0.144443225,4.47146341 L0.144443225,4.47146341 C0.144443225,2.42524841 1.80322823,0.76646341 3.84944322,0.76646341 Z" id="Rectangle-6-Copy" stroke="#3F84C5" stroke-width="2.47"></path>
                <path d="M3.15453029,67.9120251 L36.6288295,67.9120251 C38.2912547,67.9120251 39.6389166,66.2532401 39.6389166,64.2070251 L39.6389166,54.2981139 L0.144443225,54.2981139 L0.144443225,64.2070251 C0.144443225,66.2532401 1.49210511,67.9120251 3.15453029,67.9120251 Z" id="Rectangle-6-Copy-2" stroke="#3F84C5" stroke-width="2.47"></path>
                <rect id="Rectangle-10" stroke="#3F84C5" stroke-width="2.47" x="0.144443225" y="9.0071644" width="39.4944734" height="45.759299"></rect>
                <ellipse id="Oval-2" fill="#3F84C5" cx="19.8916799" cy="61.1050695" rx="2.19908484" ry="2.30701115"></ellipse>
                <rect id="Rectangle-8-Copy-8" fill="#4BBCCE" x="7.88231341" y="38.0057884" width="23.0219103" height="1.78749004"></rect>
                <rect id="Rectangle-8-Copy-11" fill="#4BBCCE" x="7.88231341" y="41.4561265" width="24.3359228" height="1.78749004"></rect>
                <rect id="Rectangle-8-Copy-12" fill="#4BBCCE" x="7.88231341" y="44.9064645" width="13.5318197" height="1.78749004"></rect>
                <rect id="Rectangle-11" stroke="#4BBCCE" stroke-width="2.47" x="9.12667991" y="16.2934187" width="22.53" height="16.53"></rect>
            </g>
        </g>
    </g>
</svg>