<?xml version="1.0" encoding="UTF-8"?>
<svg width="201px" height="259px" viewBox="0 0 201 259" version="1.1" xmlns="http://www.w3.org/2000/svg" xmlns:xlink="http://www.w3.org/1999/xlink">
    <!-- Generator: Sketch 47.1 (45422) - http://www.bohemiancoding.com/sketch -->
    <title>Group 12</title>
    <desc>Created with Sketch.</desc>
    <defs></defs>
    <g id="Page-1" stroke="none" stroke-width="1" fill="none" fill-rule="evenodd">
        <g id="Desktop-HD" transform="translate(-800.000000, -1958.000000)">
            <g id="Group-12" transform="translate(803.090765, 1960.744253)">
                <path d="M107.143002,211.873307 L107.143002,232.537688" id="Path-4-Copy" stroke="#4BBCCE" stroke-width="6" transform="translate(107.643002, 222.373307) scale(-1, 1) translate(-107.643002, -222.373307) "></path>
                <path d="M156.962734,48.5462893 L156.962734,69.21067" id="Path-4-Copy-12" stroke="#4BBCCE" stroke-width="6" transform="translate(157.462734, 59.046289) scale(-1, 1) translate(-157.462734, -59.046289) "></path>
                <path d="M34.5,78.0646858 L34.5,98.7290664" id="Path-4-Copy-13" stroke="#4BBCCE" stroke-width="6" transform="translate(35.000000, 88.564686) scale(-1, 1) translate(-35.000000, -88.564686) "></path>
                <path d="M90.165291,234.620698 L90.165291,255.285079" id="Path-4-Copy-2" stroke="#4BBCCE" stroke-width="6" transform="translate(90.665291, 245.120698) scale(-1, 1) translate(-90.665291, -245.120698) "></path>
                <path d="M74.0353276,201 L74.0353276,239.520772" id="Path-4-Copy-3" stroke="#4BBCCE" stroke-width="6" transform="translate(74.035328, 220.196808) scale(-1, 1) translate(-74.035328, -220.196808) "></path>
                <path d="M75.0706553,104 L75.0706553,178.006756" id="Path-4-Copy-4" stroke="#3F84C5" stroke-width="6" transform="translate(75.535328, 141.163428) scale(-1, 1) translate(-75.535328, -141.163428) "></path>
                <path d="M87.165291,131.992427 L87.165291,178" id="Path-4-Copy-5" stroke="#3F84C5" stroke-width="6" transform="translate(87.665291, 155.163428) scale(-1, 1) translate(-87.665291, -155.163428) "></path>
                <path d="M75.0353276,85.9012582 L75.0353276,91.5185075" id="Path-4-Copy-7" stroke="#4BBCCE" stroke-width="6" transform="translate(75.535328, 88.564686) scale(-1, 1) translate(-75.535328, -88.564686) "></path>
                <path d="M75.0353276,94.9225781 L75.0353276,100.539827" id="Path-4-Copy-8" stroke="#4BBCCE" stroke-width="6" transform="translate(75.535328, 97.586006) scale(-1, 1) translate(-75.535328, -97.586006) "></path>
                <path d="M126.403182,200.932771 L126.403182,247.025692" id="Path-4" stroke="#4BBCCE" stroke-width="6" transform="translate(126.403182, 223.979231) scale(-1, 1) translate(-126.403182, -223.979231) "></path>
                <path d="M194.638917,183.678927 L194.638917,137.586006" id="Path-4-Copy-6" stroke="#4BBCCE" stroke-width="6"></path>
                <path d="M173.029634,115.13921 L173.029634,69.0462893" id="Path-4-Copy-10" stroke="#4BBCCE" stroke-width="6"></path>
                <path d="M0,176.678927 L0,130.586006" id="Path-4-Copy-9" stroke="#4BBCCE" stroke-width="6"></path>
                <path d="M18.3907176,88.1392104 L18.3907176,42.0462893" id="Path-4-Copy-11" stroke="#4BBCCE" stroke-width="6"></path>
                <path d="M68.6803737,99.7059025 L93.4879249,69.0763968 L132.863668,69.0763968 L132.863668,99.6656202 M132.863668,180.684579 L132.863668,213.076397 L93.4879249,213.076397 L65.6896063,180.262159" id="Rectangle-14-Copy-2" stroke="#3F84C5" stroke-width="5.5328" stroke-linecap="round" stroke-linejoin="round" transform="translate(99.276637, 141.076397) scale(-1, 1) rotate(-270.000000) translate(-99.276637, -141.076397) "></path>
                <polygon id="Rectangle-14" stroke="#3F84C5" stroke-width="5.5328" stroke-linecap="round" stroke-linejoin="round" transform="translate(98.807036, 94.876102) scale(-1, 1) rotate(-270.000000) translate(-98.807036, -94.876102) " points="60.5594808 55.3793015 193.054591 55.3793015 193.054591 134.372902 60.5594808 134.372902 4.55948083 95.7632229"></polygon>
                <path d="M59.8260804,57.7037207 L137.097083,57.7037207" id="Path-5" stroke="#3F84C5" stroke-width="5.5328" stroke-linecap="round" stroke-linejoin="round"></path>
            </g>
        </g>
    </g>
</svg>