<?xml version="1.0" encoding="UTF-8"?>
<svg width="90px" height="53px" viewBox="0 0 90 53" version="1.1" xmlns="http://www.w3.org/2000/svg" xmlns:xlink="http://www.w3.org/1999/xlink">
    <!-- Generator: Sketch 47.1 (45422) - http://www.bohemiancoding.com/sketch -->
    <title>Group 16</title>
    <desc>Created with Sketch.</desc>
    <defs></defs>
    <g id="Page-1" stroke="none" stroke-width="1" fill="none" fill-rule="evenodd">
        <g id="Desktop-HD" transform="translate(-1043.000000, -4215.000000)" stroke-width="2.47">
            <g id="Group-16" transform="translate(1044.000000, 4216.000000)">
                <g id="Group-7">
                    <path d="M46.4062919,4.40452047 L46.4062919,21.196639" id="Path-3" stroke="#3F84C5"></path>
                    <path d="M41.7699877,8.3961396 L41.7699877,26.7365645" id="Path-3-Copy" stroke="#3F84C5"></path>
                    <path d="M37.1336834,11.0385008 L37.1336834,19.6138032" id="Path-3-Copy-2" stroke="#3F84C5"></path>
                    <path d="M23.5772917,41.4254969 L17.9337316,41.4254969" id="Path-3-Copy-3" stroke="#4BBCCE"></path>
                    <path d="M88.511206,25.3966566 L72.6828474,25.3966566" id="Path-3-Copy-4" stroke="#4BBCCE"></path>
                    <path d="M84.3520748,7.43239116 L70.6443142,15.3465704" id="Path-3-Copy-5" stroke="#4BBCCE"></path>
                    <path d="M84.8751541,35.4467428 L71.1673935,43.360922" id="Path-3-Copy-6" stroke="#4BBCCE" transform="translate(78.021274, 39.403832) scale(1, -1) translate(-78.021274, -39.403832) "></path>
                    <path d="M7.63611228,15.0561596 L32.5402876,15.0561596 L32.5402876,35.398341 L27.0796143,35.398341 L7.63611228,35.398341 L7.63611228,35.398341 C6.53154278,35.398341 5.63611228,34.5029105 5.63611228,33.398341 L5.63611228,17.0561596 L5.63611228,17.0561596 C5.63611228,15.9515901 6.53154278,15.0561596 7.63611228,15.0561596 Z" id="Rectangle-12" stroke="#3F84C5"></path>
                    <path d="M2.26380598,21.6564879 L5.63611228,21.6564879 L5.63611228,29.9010599 L2.26380598,29.9010599 L2.26380598,29.9010599 C1.15923648,29.9010599 0.263805976,29.0056294 0.263805976,27.9010599 L0.263805976,23.6564879 L0.263805976,23.6564879 C0.263805976,22.5519184 1.15923648,21.6564879 2.26380598,21.6564879 Z" id="Rectangle-12-Copy" stroke="#3F84C5"></path>
                    <path d="M15.7196084,46.5254541 L13.1881824,46.5254541 C12.0836129,46.5254541 11.1881824,45.6300236 11.1881824,44.5254541 L11.1881824,40.2808821 C11.1881824,39.1763126 12.0836129,38.2808821 13.1881824,38.2808821 L25.1978366,38.2808821 L25.1978366,46.5254541 L22.3559929,46.5254541" id="Rectangle-12-Copy-3" stroke="#3F84C5" transform="translate(18.193010, 42.403168) rotate(-90.000000) translate(-18.193010, -42.403168) "></path>
                    <path d="M53.5590145,18.9260161 L56.8046449,18.9260161 L56.8046449,32.6202968 L53.5590145,32.6202968 L53.5590145,32.6202968 C52.454445,32.6202968 51.5590145,31.7248663 51.5590145,30.6202968 L51.5590145,20.9260161 L51.5590145,20.9260161 C51.5590145,19.8214466 52.454445,18.9260161 53.5590145,18.9260161 Z" id="Rectangle-12-Copy-2" stroke="#3F84C5" transform="translate(54.181830, 25.773156) scale(-1, 1) translate(-54.181830, -25.773156) "></path>
                    <polygon id="Rectangle-13" stroke="#3F84C5" stroke-linejoin="round" points="32.5402876 14.9247984 51.5700702 0.619772875 51.5700702 50.4909272 32.5402876 35.4464296"></polygon>
                </g>
            </g>
        </g>
    </g>
</svg>