<?xml version="1.0" encoding="UTF-8"?>
<svg width="84px" height="60px" viewBox="0 0 84 60" version="1.1" xmlns="http://www.w3.org/2000/svg" xmlns:xlink="http://www.w3.org/1999/xlink">
    <!-- Generator: Sketch 47.1 (45422) - http://www.bohemiancoding.com/sketch -->
    <title>Group 3</title>
    <desc>Created with Sketch.</desc>
    <defs></defs>
    <g id="Page-1" stroke="none" stroke-width="1" fill="none" fill-rule="evenodd">
        <g id="Desktop-HD" transform="translate(-194.000000, -4211.000000)">
            <g id="Group-3" transform="translate(194.000000, 4211.455065)">
                <path d="M1.45012779,9.14685767 L82.7394513,9.14685767 L82.7394513,3.94426846 C82.7394513,2.58012512 81.6335946,1.47426846 80.2694513,1.47426846 L3.92012779,1.47426846 C2.55598445,1.47426846 1.45012779,2.58012512 1.45012779,3.94426846 L1.45012779,9.14685767 Z" id="Rectangle-6" stroke="#3F84C5" stroke-width="2.47"></path>
                <rect id="Rectangle-7" stroke="#3F84C5" stroke-width="2.47" x="1.45012779" y="9.15054521" width="81.2893235" height="48.3756361"></rect>
                <rect id="Rectangle-8" fill="#3F84C5" x="14.2174753" y="29.4593427" width="19.7114346" height="3.70877967"></rect>
                <rect id="Rectangle-9" fill="#3F84C5" x="57.1945453" y="29.4593427" width="12.4395035" height="3.88691098"></rect>
                <rect id="Rectangle-9-Copy" fill="#3F84C5" x="57.1945453" y="37.6821079" width="12.4395035" height="3.88691098"></rect>
                <rect id="Rectangle-9-Copy-2" fill="#3F84C5" x="57.1945453" y="45.904873" width="12.4395035" height="3.88691098"></rect>
                <rect id="Rectangle-8-Copy-6" fill="#4BBCCE" x="45.6502686" y="16.1606162" width="6.04397622" height="2.26104877"></rect>
                <rect id="Rectangle-8-Copy-10" fill="#4BBCCE" x="36.6803666" y="16.1606162" width="6.04397622" height="2.26104877"></rect>
                <rect id="Rectangle-8-Copy-7" fill="#4BBCCE" x="54.6201706" y="16.1606162" width="6.04397622" height="2.26104877"></rect>
                <rect id="Rectangle-8-Copy-9" fill="#4BBCCE" x="63.5900726" y="16.1606162" width="6.04397622" height="2.26104877"></rect>
                <rect id="Rectangle-8-Copy" fill="#4BBCCE" x="14.2174753" y="36.3323098" width="27.8220333" height="1.92001822"></rect>
                <rect id="Rectangle-8-Copy-2" fill="#4BBCCE" x="14.2174753" y="40.1585823" width="26.5204664" height="1.92001822"></rect>
                <rect id="Rectangle-8-Copy-3" fill="#4BBCCE" x="14.2174753" y="43.9848548" width="27.8220333" height="1.92001822"></rect>
                <rect id="Rectangle-8-Copy-4" fill="#4BBCCE" x="14.2174753" y="47.8111273" width="17.0724207" height="1.92001822"></rect>
            </g>
        </g>
    </g>
</svg>